<svg id="Capa_1" data-name="Capa 1" xmlns="http://www.w3.org/2000/svg" xmlns:xlink="http://www.w3.org/1999/xlink" viewBox="0 0 1200 945"><defs><style>.cls-1,.cls-3{fill:none;}.cls-2{clip-path:url(#clip-path);}.cls-3{stroke:#000;stroke-miterlimit:10;stroke-width:2px;}.cls-22,.cls-4{font-size:36px;font-family:MavenProBold, Maven Pro;}.cls-4{fill:gray;}.cls-5{letter-spacing:-0.01em;}.cls-6{letter-spacing:-0.01em;}.cls-7{letter-spacing:0.01em;}.cls-8{letter-spacing:-0.01em;}.cls-9{letter-spacing:0em;}.cls-10{letter-spacing:-0.04em;}.cls-11{letter-spacing:-0.02em;}.cls-12{letter-spacing:-0.01em;}.cls-13{letter-spacing:0.03em;}.cls-14{letter-spacing:-0.01em;}.cls-15{letter-spacing:-0.03em;}.cls-16{letter-spacing:-0.02em;}.cls-17{letter-spacing:0em;}.cls-18{letter-spacing:-0.02em;}.cls-19{letter-spacing:-0.03em;}.cls-20{letter-spacing:-0.02em;}.cls-21{fill:#006837;}.cls-22,.cls-30{fill:#fff;}.cls-23{letter-spacing:-0.02em;}.cls-24{letter-spacing:-0.03em;}.cls-25{letter-spacing:-0.01em;}.cls-26{letter-spacing:0em;}.cls-27{letter-spacing:-0.01em;}.cls-28{letter-spacing:-0.01em;}.cls-29{letter-spacing:-0.02em;}.cls-31{fill:#244e03;}.cls-32{fill:#479b05;}.cls-33,.cls-34{fill:#6caf37;}.cls-34{fill-rule:evenodd;}</style><clipPath id="clip-path"><rect class="cls-1" x="-708.12" y="182" width="600.97" height="407" rx="39.99"/></clipPath></defs><title>navis_landingpage</title><g class="cls-2"><image width="5000" height="3333" transform="translate(-738.52 134) scale(0.15)" xlink:href="../img/beautiful-student-girl-learning-at-home-with-laptop.jpg"/></g><rect class="cls-3" x="688.37" y="310.91" width="375" height="80" rx="23.35"/><text class="cls-4" transform="translate(688.37 293.57)"><tspan class="cls-5">C</tspan><tspan class="cls-6" x="22.2" y="0">o</tspan><tspan class="cls-7" x="42.29" y="0">r</tspan><tspan class="cls-8" x="55.53" y="0">r</tspan><tspan class="cls-9" x="68.12" y="0">e</tspan><tspan x="88.4" y="0">o </tspan><tspan class="cls-10" x="120.94" y="0">e</tspan><tspan class="cls-11" x="139.61" y="0">l</tspan><tspan class="cls-12" x="150.36" y="0">e</tspan><tspan class="cls-13" x="170.12" y="0">c</tspan><tspan class="cls-14" x="188.03" y="0">t</tspan><tspan x="201.78" y="0">ró</tspan><tspan class="cls-15" x="235.18" y="0">n</tspan><tspan class="cls-16" x="256.48" y="0">i</tspan><tspan class="cls-17" x="266.8" y="0">c</tspan><tspan x="283.71" y="0">o</tspan></text><rect class="cls-3" x="688.37" y="471.18" width="375" height="80" rx="23.35"/><text class="cls-4" transform="translate(688.37 460.84)"><tspan class="cls-18">C</tspan><tspan class="cls-19" x="22.03" y="0">l</tspan><tspan class="cls-20" x="32.57" y="0">a</tspan><tspan class="cls-16" x="51.4" y="0">v</tspan><tspan x="71.05" y="0">e</tspan></text><rect class="cls-21" x="717.99" y="596.27" width="315" height="80" rx="23.35"/><text class="cls-22" transform="translate(768.41 647.14)"><tspan class="cls-23">I</tspan><tspan class="cls-15" x="10" y="0">n</tspan><tspan class="cls-16" x="31.31" y="0">i</tspan><tspan class="cls-8" x="41.63" y="0">c</tspan><tspan class="cls-24" x="58.17" y="0">i</tspan><tspan x="68.45" y="0">a </tspan><tspan class="cls-25" x="100.13" y="0">s</tspan><tspan class="cls-26" x="116.1" y="0">e</tspan><tspan class="cls-23" x="136.04" y="0">s</tspan><tspan class="cls-16" x="151.72" y="0">i</tspan><tspan x="162.04" y="0">ón</tspan></text><rect class="cls-21" x="210.45" y="432.5" width="375" height="80" rx="23.35"/><text class="cls-22" transform="translate(351.95 483.37)">L<tspan class="cls-27" x="19.76" y="0">o</tspan><tspan class="cls-28" x="39.81" y="0">g</tspan><tspan class="cls-29" x="59.03" y="0">i</tspan><tspan x="69.63" y="0">n</tspan></text><path class="cls-21" d="M190,494.61a1.88,1.88,0,0,0-.51-1.07l-9.81-10.34c2.4-23.23-8.81-42.78-13.4-49.69a2.27,2.27,0,0,0-3.78,0c-4.62,6.88-15.91,26.39-13.61,49.62l-9.86,10.3a1.88,1.88,0,0,0-.51,1.07l-1.91,15.38a1.89,1.89,0,0,0,2.65,1.95l15.85-7.15c.54,1.1,1.12,2.19,1.74,3.29h0l0,0c.37.65.74,1.29,1.14,1.94l.16.26.76,1.22,0,.05.35.54a1,1,0,0,0,.85.46h8.1a1,1,0,0,0,.86-.46l.35-.54,0-.05c.26-.41.52-.82.77-1.23l.16-.24c.39-.65.78-1.29,1.14-1.94l0,0h0c.63-1.09,1.21-2.19,1.76-3.28l15.81,7.22a1.89,1.89,0,0,0,2.66-1.94Z"/><circle class="cls-30" cx="164.26" cy="472.67" r="6.49" transform="translate(-169.09 99.48) rotate(-22.61)"/><path class="cls-30" d="M164.26,481.38h0a12.05,12.05,0,0,0-12,12.05h0a3.16,3.16,0,0,0,3.16,3.16h17.77a3.15,3.15,0,0,0,3.16-3.16h0A12,12,0,0,0,164.26,481.38Z"/><rect class="cls-21" y="827.19" width="1200" height="118"/><path class="cls-31" d="M573.34,97.36l-5.9,6.17a.94.94,0,0,0-.25.52l-.92,7.46a.91.91,0,0,0,1.28.95l9.07-4.09a.91.91,0,0,0,.51-1l-2.23-9.55A.92.92,0,0,0,573.34,97.36Z"/><path class="cls-31" d="M586.05,97.39l5.88,6.19a1,1,0,0,1,.25.52l.89,7.47a.92.92,0,0,1-1.29,1l-9-4.14a.91.91,0,0,1-.51-1l2.28-9.54A.91.91,0,0,1,586.05,97.39Z"/><path class="cls-32" d="M580.67,74.45a1.11,1.11,0,0,0-1.84,0c-3.11,4.64-12.48,21.1-1.73,37.82a1.11,1.11,0,0,0,.93.51h3.27a1.14,1.14,0,0,0,.94-.51C593.05,95.61,583.76,79.11,580.67,74.45Zm-1,22.79a3.87,3.87,0,1,1,3.88-3.86A3.86,3.86,0,0,1,579.71,97.24Z"/><path class="cls-33" d="M579.73,89.51a3.87,3.87,0,1,0,3.86,3.87A3.86,3.86,0,0,0,579.73,89.51Zm0,6.59a2.73,2.73,0,1,1,2.73-2.72A2.73,2.73,0,0,1,579.72,96.1Z"/><path class="cls-31" d="M579.7,98.2h0a.73.73,0,0,0-.73.72l0,11.54a.14.14,0,0,1-.14.14h-2.72c.37.65.77,1.31,1.2,2a.49.49,0,0,0,.41.23h3.93a.5.5,0,0,0,.42-.23c.43-.65.83-1.3,1.2-2h-2.72a.14.14,0,0,1-.14-.14l0-11.54A.72.72,0,0,0,579.7,98.2Z"/><path d="M557.23,94.19v14.89a3.67,3.67,0,1,1-7.34,0V94.19a11.26,11.26,0,1,0-22.52,0v14.89a3.67,3.67,0,1,1-7.33,0V94.19a18.6,18.6,0,0,1,37.19,0Z"/><path d="M627.49,80.71l-11.12,29.63a3.83,3.83,0,0,1-3.48,2.45h-.07a3.78,3.78,0,0,1-3.48-2.45L598.22,80.71a3.68,3.68,0,1,1,6.89-2.59l7.78,20.67,7.71-20.67a3.68,3.68,0,0,1,6.89,2.59Z"/><path d="M639.07,109.08V79.23a3.67,3.67,0,0,1,7.33,0v29.85a3.67,3.67,0,1,1-7.33,0Z"/><path d="M680,101.6a11.16,11.16,0,0,1-11.11,11.19A11.73,11.73,0,0,1,658,104.71c-.67-1.92.89-3.92,2.81-4.37s3.41,1,4.37,2.89,1.93,2.22,3.71,2.22a3.82,3.82,0,0,0,0-7.63A11.05,11.05,0,0,1,661,94.56a10.79,10.79,0,0,1-3.26-7.85A11.09,11.09,0,0,1,668.85,75.6c5.18,0,9.92,3.56,10.66,7.7a3.67,3.67,0,0,1-2.81,4.37,3.83,3.83,0,0,1-4.37-2.74,3.48,3.48,0,0,0-3.48-2,3.78,3.78,0,1,0,0,7.56,11.11,11.11,0,0,1,7.85,3.26A10.92,10.92,0,0,1,680,101.6Z"/><path class="cls-33" d="M606.53,872.91H593.81a6.58,6.58,0,0,0-6.58,6.57v12.73a6.59,6.59,0,0,0,6.58,6.58h12.72a6.59,6.59,0,0,0,6.58-6.58V879.48A6.58,6.58,0,0,0,606.53,872.91ZM600.3,893.7a7.85,7.85,0,1,1,7.85-7.85A7.86,7.86,0,0,1,600.3,893.7Zm8.31-14.36a1.87,1.87,0,1,1,1.87-1.87A1.87,1.87,0,0,1,608.61,879.34Z"/><circle class="cls-33" cx="600.3" cy="885.85" r="5.03"/><path class="cls-33" d="M600.17,858.7a27.19,27.19,0,1,0,27.19,27.19A27.19,27.19,0,0,0,600.17,858.7Zm15.94,33.51a9.59,9.59,0,0,1-9.58,9.58H593.81a9.59,9.59,0,0,1-9.58-9.58V879.48a9.59,9.59,0,0,1,9.58-9.57h12.72a9.59,9.59,0,0,1,9.58,9.57Z"/><path class="cls-33" d="M522.05,858.7a27.09,27.09,0,0,0-4.24,53.85V893.62h-6.87v-7.83h6.87v-6c0-6.79,4.05-10.54,10.24-10.54a41.57,41.57,0,0,1,6.06.53v6.67h-3.42c-3.36,0-4.41,2.08-4.41,4.23v5.08h7.51l-1.2,7.83h-6.31v18.93a27.09,27.09,0,0,0-4.23-53.85Z"/><path class="cls-34" d="M679.68,872.61a12.64,12.64,0,0,0-10.81,19.23l.33.53-1.27,4.73,4.75-1.28.54.32a12.65,12.65,0,1,0,6.46-23.53Zm7.44,17.44a3.78,3.78,0,0,1-2.83,2.11,6,6,0,0,1-3.12-.5,13.16,13.16,0,0,1-2.68-1.27,15.43,15.43,0,0,1-4.3-4c-.35-.49-.68-1-1-1.51a8.36,8.36,0,0,1-1-2.19,4.61,4.61,0,0,1-.12-1,3.93,3.93,0,0,1,1.36-3.12,1.79,1.79,0,0,1,1.94-.29c.66.37,1,1.31,1.31,2a3.44,3.44,0,0,1,.41,1.77,3.52,3.52,0,0,1-.92,1.49.61.61,0,0,0-.08.84,10,10,0,0,0,5.05,4.33.57.57,0,0,0,.73-.15c.37-.47.74-1.38,1.32-1.61a2.64,2.64,0,0,1,2.24.5c.6.36,1.6.8,1.76,1.54A1.8,1.8,0,0,1,687.12,890.05Z"/><path class="cls-34" d="M678.45,858.7a27.19,27.19,0,1,0,27.18,27.19A27.19,27.19,0,0,0,678.45,858.7Zm1.23,42.19a15.57,15.57,0,0,1-7.42-1.9l-8.5,2.28,2.26-8.46a15.61,15.61,0,1,1,13.66,8.08Z"/></svg>