<svg id="Capa_1" data-name="Capa 1" xmlns="http://www.w3.org/2000/svg" viewBox="0 0 1080 1400"><defs><style>.cls-1{fill:none;stroke:#000;stroke-miterlimit:10;stroke-width:2px;}.cls-2,.cls-20{font-size:47.23px;font-family:MavenProBold, Maven Pro;}.cls-2{fill:gray;}.cls-3{letter-spacing:-0.01em;}.cls-4{letter-spacing:-0.01em;}.cls-5{letter-spacing:0.01em;}.cls-6{letter-spacing:-0.01em;}.cls-7{letter-spacing:0em;}.cls-8{letter-spacing:-0.04em;}.cls-9{letter-spacing:-0.02em;}.cls-10{letter-spacing:-0.01em;}.cls-11{letter-spacing:0.03em;}.cls-12{letter-spacing:-0.01em;}.cls-13{letter-spacing:-0.03em;}.cls-14{letter-spacing:-0.02em;}.cls-15{letter-spacing:0em;}.cls-16{letter-spacing:-0.02em;}.cls-17{letter-spacing:-0.03em;}.cls-18{letter-spacing:-0.02em;}.cls-19{fill:#006837;}.cls-20,.cls-29{fill:#fff;}.cls-21{letter-spacing:-0.02em;}.cls-22{letter-spacing:-0.03em;}.cls-23{letter-spacing:-0.01em;}.cls-24{letter-spacing:0em;}.cls-25{letter-spacing:-0.02em;}.cls-26{letter-spacing:-0.01em;}.cls-27{letter-spacing:-0.01em;}.cls-28{letter-spacing:-0.02em;}.cls-30,.cls-31{fill:#6caf37;}.cls-31{fill-rule:evenodd;}.cls-32{fill:#244e03;}.cls-33{fill:#479b05;}</style></defs><title>navis_landingpage</title><rect class="cls-1" x="294.03" y="672.58" width="491.94" height="104.95" rx="23.35"/><text class="cls-2" transform="translate(294.03 649.83)"><tspan class="cls-3">C</tspan><tspan class="cls-4" x="29.13" y="0">o</tspan><tspan class="cls-5" x="55.48" y="0">r</tspan><tspan class="cls-6" x="72.85" y="0">r</tspan><tspan class="cls-7" x="89.36" y="0">e</tspan><tspan x="115.97" y="0">o </tspan><tspan class="cls-8" x="158.65" y="0">e</tspan><tspan class="cls-9" x="183.14" y="0">l</tspan><tspan class="cls-10" x="197.25" y="0">e</tspan><tspan class="cls-11" x="223.17" y="0">c</tspan><tspan class="cls-12" x="246.67" y="0">t</tspan><tspan x="264.7" y="0">ró</tspan><tspan class="cls-13" x="308.51" y="0">n</tspan><tspan class="cls-14" x="336.46" y="0">i</tspan><tspan class="cls-15" x="350" y="0">c</tspan><tspan x="372.18" y="0">o</tspan></text><rect class="cls-1" x="294.03" y="860.95" width="491.94" height="104.95" rx="23.35"/><text class="cls-2" transform="translate(294.03 847.38)"><tspan class="cls-16">C</tspan><tspan class="cls-17" x="28.89" y="0">l</tspan><tspan class="cls-18" x="42.73" y="0">a</tspan><tspan class="cls-14" x="67.43" y="0">v</tspan><tspan x="93.21" y="0">e</tspan></text><rect class="cls-19" x="333.39" y="1003.03" width="413.23" height="104.95" rx="23.35"/><text class="cls-20" transform="translate(399.54 1069.76)"><tspan class="cls-21">I</tspan><tspan class="cls-13" x="13.12" y="0">n</tspan><tspan class="cls-14" x="41.07" y="0">i</tspan><tspan class="cls-6" x="54.61" y="0">c</tspan><tspan class="cls-22" x="76.3" y="0">i</tspan><tspan x="89.79" y="0">a </tspan><tspan class="cls-23" x="131.35" y="0">s</tspan><tspan class="cls-24" x="152.31" y="0">e</tspan><tspan class="cls-21" x="178.46" y="0">s</tspan><tspan class="cls-25" x="199.03" y="0">i</tspan><tspan x="212.56" y="0">ón</tspan></text><rect class="cls-19" x="294.03" y="445.51" width="491.94" height="104.95" rx="23.35"/><text class="cls-20" transform="translate(479.65 512.25)">L<tspan class="cls-26" x="25.92" y="0">o</tspan><tspan class="cls-27" x="52.23" y="0">g</tspan><tspan class="cls-28" x="77.43" y="0">i</tspan><tspan x="91.34" y="0">n</tspan></text><path class="cls-19" d="M573.81,373.51a2.52,2.52,0,0,0-.67-1.41l-12.86-13.57c3.14-30.46-11.56-56.11-17.58-65.17a3,3,0,0,0-5,0c-6.06,9-20.86,34.62-17.86,65.1L507,372a2.49,2.49,0,0,0-.67,1.4l-2.51,20.18a2.48,2.48,0,0,0,3.48,2.56L528,386.72c.71,1.44,1.47,2.87,2.28,4.32h0l0,0c.48.85,1,1.7,1.49,2.55l.21.33,1,1.61.06.06c.15.24.29.48.45.71a1.34,1.34,0,0,0,1.12.61H545.3a1.31,1.31,0,0,0,1.13-.6c.16-.23.3-.47.46-.71l.05-.06c.35-.54.68-1.07,1-1.6l.21-.34c.52-.84,1-1.69,1.5-2.53l0-.05h0q1.23-2.16,2.31-4.31l20.74,9.47a2.48,2.48,0,0,0,3.49-2.55Z"/><circle class="cls-29" cx="540" cy="344.72" r="8.52" transform="translate(-91.03 234.1) rotate(-22.61)"/><path class="cls-29" d="M540,356.15h0A15.8,15.8,0,0,0,524.2,372h0a4.14,4.14,0,0,0,4.14,4.15h23.32A4.14,4.14,0,0,0,555.8,372h0A15.8,15.8,0,0,0,540,356.15Z"/><rect class="cls-19" y="1282" width="1080" height="118"/><path class="cls-30" d="M546.24,1328H533.51a6.58,6.58,0,0,0-6.57,6.58v12.73a6.58,6.58,0,0,0,6.57,6.57h12.73a6.59,6.59,0,0,0,6.58-6.57V1334.6A6.59,6.59,0,0,0,546.24,1328ZM540,1348.81a7.85,7.85,0,1,1,7.85-7.85A7.86,7.86,0,0,1,540,1348.81Zm8.3-14.36a1.87,1.87,0,1,1,1.87-1.87A1.86,1.86,0,0,1,548.31,1334.45Z"/><circle class="cls-30" cx="540.01" cy="1340.96" r="5.03"/><path class="cls-30" d="M539.88,1313.81A27.19,27.19,0,1,0,567.06,1341,27.19,27.19,0,0,0,539.88,1313.81Zm15.93,33.52a9.58,9.58,0,0,1-9.57,9.57H533.51a9.58,9.58,0,0,1-9.57-9.57V1334.6a9.59,9.59,0,0,1,9.57-9.58h12.73a9.59,9.59,0,0,1,9.57,9.58Z"/><path class="cls-30" d="M461.75,1313.81a27.09,27.09,0,0,0-4.23,53.85v-18.93h-6.88v-7.83h6.88v-6c0-6.79,4-10.54,10.23-10.54a41.57,41.57,0,0,1,6.06.53v6.67H470.4c-3.37,0-4.42,2.09-4.42,4.23v5.08h7.52l-1.2,7.83H466v18.93a27.09,27.09,0,0,0-4.23-53.85Z"/><path class="cls-31" d="M619.39,1327.72A12.64,12.64,0,0,0,608.57,1347l.33.54-1.26,4.72,4.74-1.27.54.32a12.66,12.66,0,1,0,6.47-23.54Zm7.43,17.45a3.79,3.79,0,0,1-2.83,2.1,6,6,0,0,1-3.11-.49,12.76,12.76,0,0,1-2.69-1.28,15.12,15.12,0,0,1-4.29-4,16.18,16.18,0,0,1-1-1.5,8.17,8.17,0,0,1-.95-2.19,4.71,4.71,0,0,1-.13-1,4,4,0,0,1,1.37-3.12,1.79,1.79,0,0,1,1.94-.29,4.12,4.12,0,0,1,1.3,2,3.2,3.2,0,0,1,.41,1.76,3.37,3.37,0,0,1-.92,1.49.63.63,0,0,0-.08.85,10.21,10.21,0,0,0,5.06,4.33.55.55,0,0,0,.72-.16c.38-.46.75-1.37,1.33-1.61a2.63,2.63,0,0,1,2.23.5c.6.36,1.6.8,1.76,1.54A1.83,1.83,0,0,1,626.82,1345.17Z"/><path class="cls-31" d="M618.15,1313.81A27.19,27.19,0,1,0,645.34,1341,27.19,27.19,0,0,0,618.15,1313.81Zm1.24,42.19a15.6,15.6,0,0,1-7.43-1.89l-8.5,2.27,2.27-8.45a15.6,15.6,0,1,1,13.66,8.07Z"/><path class="cls-32" d="M513.34,97.36l-5.9,6.17a.94.94,0,0,0-.25.52l-.92,7.46a.91.91,0,0,0,1.28.95l9.07-4.09a.91.91,0,0,0,.51-1l-2.23-9.55A.92.92,0,0,0,513.34,97.36Z"/><path class="cls-32" d="M526.05,97.39l5.88,6.19a1,1,0,0,1,.25.52l.89,7.47a.92.92,0,0,1-1.29,1l-9-4.14a.91.91,0,0,1-.51-1l2.28-9.54A.91.91,0,0,1,526.05,97.39Z"/><path class="cls-33" d="M520.67,74.45a1.11,1.11,0,0,0-1.84,0c-3.11,4.64-12.48,21.1-1.73,37.82a1.11,1.11,0,0,0,.93.51h3.27a1.14,1.14,0,0,0,.94-.51C533.05,95.61,523.76,79.11,520.67,74.45Zm-1,22.79a3.87,3.87,0,1,1,3.88-3.86A3.86,3.86,0,0,1,519.71,97.24Z"/><path class="cls-30" d="M519.73,89.51a3.87,3.87,0,1,0,3.86,3.87A3.86,3.86,0,0,0,519.73,89.51Zm0,6.59a2.73,2.73,0,1,1,2.73-2.72A2.73,2.73,0,0,1,519.72,96.1Z"/><path class="cls-32" d="M519.7,98.2h0a.73.73,0,0,0-.73.72l0,11.54a.14.14,0,0,1-.14.14h-2.72c.37.65.77,1.31,1.2,2a.49.49,0,0,0,.41.23h3.93a.5.5,0,0,0,.42-.23c.43-.65.83-1.3,1.2-2h-2.72a.14.14,0,0,1-.14-.14l0-11.54A.72.72,0,0,0,519.7,98.2Z"/><path d="M497.23,94.19v14.89a3.67,3.67,0,1,1-7.34,0V94.19a11.26,11.26,0,1,0-22.52,0v14.89a3.67,3.67,0,1,1-7.33,0V94.19a18.6,18.6,0,0,1,37.19,0Z"/><path d="M567.49,80.71l-11.12,29.63a3.83,3.83,0,0,1-3.48,2.45h-.07a3.78,3.78,0,0,1-3.48-2.45L538.22,80.71a3.68,3.68,0,1,1,6.89-2.59l7.78,20.67,7.71-20.67a3.68,3.68,0,0,1,6.89,2.59Z"/><path d="M579.07,109.08V79.23a3.67,3.67,0,0,1,7.33,0v29.85a3.67,3.67,0,1,1-7.33,0Z"/><path d="M620,101.6a11.16,11.16,0,0,1-11.11,11.19A11.73,11.73,0,0,1,598,104.71c-.67-1.92.89-3.92,2.81-4.37s3.41,1,4.37,2.89,1.93,2.22,3.71,2.22a3.82,3.82,0,0,0,0-7.63A11.05,11.05,0,0,1,601,94.56a10.79,10.79,0,0,1-3.26-7.85A11.09,11.09,0,0,1,608.85,75.6c5.18,0,9.92,3.56,10.66,7.7a3.67,3.67,0,0,1-2.81,4.37,3.83,3.83,0,0,1-4.37-2.74,3.48,3.48,0,0,0-3.48-2,3.78,3.78,0,1,0,0,7.56,11.11,11.11,0,0,1,7.85,3.26A10.92,10.92,0,0,1,620,101.6Z"/></svg>