<?xml version="1.0" standalone="no"?>
<!DOCTYPE svg PUBLIC "-//W3C//DTD SVG 20010904//EN"
 "http://www.w3.org/TR/2001/REC-SVG-20010904/DTD/svg10.dtd">
<svg version="1.0" xmlns="http://www.w3.org/2000/svg"
 width="512.000000pt" height="512.000000pt" viewBox="0 0 512.000000 512.000000"
 preserveAspectRatio="xMidYMid meet">

<g transform="translate(0.000000,512.000000) scale(0.100000,-0.100000)"
fill="#000000" stroke="none">
<path d="M367 4940 c-76 -29 -132 -82 -169 -158 l-33 -67 0 -1600 0 -1600 26
-56 c33 -69 88 -127 154 -159 l50 -25 598 -3 598 -3 29 30 c32 31 39 75 19
113 -25 47 -42 48 -636 48 -426 0 -564 3 -583 13 -13 7 -35 28 -47 46 l-23 34
0 1273 0 1274 2025 0 2025 0 0 -742 0 -742 -292 290 c-334 332 -330 329 -478
329 -76 0 -93 -3 -152 -33 -75 -37 -126 -89 -160 -164 -23 -51 -28 -54 -59
-37 -69 36 -206 28 -292 -19 -97 -52 -177 -175 -177 -271 l0 -39 -54 -6 c-114
-15 -244 -109 -278 -202 -6 -19 -15 -34 -18 -34 -3 0 -115 111 -250 246 -258
258 -291 284 -392 303 -191 35 -377 -106 -403 -306 -8 -60 14 -156 47 -212 11
-20 296 -312 632 -648 336 -337 607 -613 603 -613 -4 0 -67 14 -139 31 -162
39 -245 37 -332 -5 -71 -35 -148 -119 -175 -191 -28 -75 -28 -185 0 -259 23
-64 93 -146 153 -181 50 -29 1010 -365 1127 -394 565 -141 1168 116 1468 625
283 482 229 1110 -133 1537 l-56 66 -2 1143 -3 1143 -33 67 c-38 78 -94 129
-172 159 -49 19 -99 19 -2008 19 -1890 -1 -1959 -2 -2005 -20z m3977 -191 c51
-40 56 -62 56 -269 l0 -190 -2025 0 -2025 0 0 190 c0 207 5 229 56 269 l27 21
1942 0 1942 0 27 -21z m-640 -1714 c52 -25 802 -786 863 -875 138 -205 203
-413 203 -655 0 -145 -18 -260 -61 -381 -197 -565 -787 -882 -1369 -737 -104
26 -1052 361 -1080 382 -41 30 -64 80 -64 137 0 95 72 166 167 165 23 0 172
-31 331 -70 159 -39 300 -71 313 -71 39 0 83 51 83 97 0 37 -20 57 -749 788
-812 812 -774 769 -757 860 9 46 62 100 114 115 91 28 66 49 734 -618 599
-597 608 -607 647 -607 56 0 91 35 91 89 0 40 -5 46 -250 291 -138 138 -262
267 -276 287 -70 100 6 248 126 248 67 0 102 -28 381 -306 264 -263 278 -276
314 -276 53 0 90 38 90 92 0 39 -7 47 -282 322 -216 219 -283 292 -293 321
-35 111 61 220 179 202 44 -7 57 -18 337 -296 277 -276 292 -289 328 -289 70
0 116 72 85 133 -6 12 -105 117 -219 232 -176 178 -209 216 -214 247 -13 71
22 139 89 176 29 16 102 14 139 -3z"/>
<path d="M655 4595 c-56 -55 -11 -155 70 -155 78 0 116 99 60 155 -34 35 -96
35 -130 0z"/>
<path d="M999 4594 c-35 -37 -33 -98 4 -130 40 -34 90 -32 128 5 37 37 38 79
3 120 -35 42 -98 44 -135 5z"/>
<path d="M1345 4595 c-57 -56 -15 -155 65 -155 80 0 122 99 65 155 -34 35 -96
35 -130 0z"/>
<path d="M2029 4607 c-47 -36 -51 -97 -10 -138 l29 -29 1007 0 1007 0 29 29
c38 38 40 91 4 126 l-24 25 -1013 0 c-781 -1 -1017 -3 -1029 -13z"/>
<path d="M1654 3535 c-37 -26 -46 -65 -42 -193 3 -110 5 -123 26 -145 30 -32
67 -41 104 -26 48 20 58 53 58 194 0 126 0 127 -29 156 -33 33 -82 39 -117 14z"/>
<path d="M899 3505 c-33 -18 -53 -66 -44 -102 4 -18 77 -99 199 -221 173 -174
196 -194 231 -199 31 -4 46 0 67 16 32 26 45 78 28 112 -17 33 -359 377 -392
395 -33 17 -56 17 -89 -1z"/>
<path d="M873 2745 c-37 -16 -53 -42 -53 -87 1 -37 14 -59 47 -76 28 -15 267
-16 295 -1 11 6 26 26 34 45 20 48 -1 99 -50 119 -46 20 -228 20 -273 0z"/>
<path d="M1883 1445 c-38 -16 -53 -42 -53 -88 0 -43 46 -87 90 -87 44 0 90 44
90 87 0 47 -16 72 -55 89 -40 16 -32 17 -72 -1z"/>
</g>
</svg>
