<?xml version="1.0" standalone="no"?>
<!DOCTYPE svg PUBLIC "-//W3C//DTD SVG 20010904//EN"
 "http://www.w3.org/TR/2001/REC-SVG-20010904/DTD/svg10.dtd">
<svg version="1.0" xmlns="http://www.w3.org/2000/svg"
 width="512.000000pt" height="512.000000pt" viewBox="0 0 512.000000 512.000000"
 preserveAspectRatio="xMidYMid meet">

<g transform="translate(0.000000,512.000000) scale(0.100000,-0.100000)"
fill="#000000" stroke="none">
<path d="M2370 5114 c-19 -2 -78 -9 -130 -15 -548 -62 -1083 -325 -1489 -730
-405 -406 -651 -906 -732 -1489 -20 -143 -18 -527 4 -670 90 -586 331 -1065
738 -1467 196 -193 400 -343 631 -461 815 -419 1808 -366 2570 136 436 288
793 724 976 1193 231 592 242 1218 31 1814 -24 66 -83 200 -132 298 l-90 179
137 137 c150 150 166 177 146 250 -12 47 -66 98 -112 106 -18 3 -131 14 -251
24 -120 11 -221 21 -224 24 -2 3 -13 104 -24 224 -10 120 -21 233 -24 251 -8
46 -59 100 -106 112 -73 20 -101 4 -249 -145 -74 -74 -138 -135 -143 -135 -4
0 -54 25 -110 56 -273 148 -548 240 -867 289 -100 15 -472 28 -550 19z m406
-305 c259 -25 532 -102 763 -214 72 -35 131 -68 131 -72 0 -5 -43 -51 -95
-103 -62 -61 -99 -107 -104 -128 -6 -19 -6 -70 0 -125 4 -50 9 -109 9 -130 l0
-37 -38 24 c-75 47 -220 115 -322 151 -425 148 -915 118 -1311 -80 -416 -208
-726 -564 -869 -994 -331 -996 294 -2038 1335 -2227 75 -14 148 -18 295 -18
171 1 210 4 321 27 1030 216 1627 1267 1279 2252 -33 91 -102 237 -146 307
l-24 38 37 0 c21 0 80 -5 130 -9 55 -6 106 -6 125 0 21 5 67 42 128 104 52 52
98 95 103 95 4 0 37 -59 72 -131 408 -838 249 -1851 -396 -2533 -185 -195
-390 -346 -640 -470 -845 -420 -1859 -268 -2552 384 -195 184 -347 390 -471
641 -551 1109 -100 2457 1010 3018 377 190 811 271 1230 230z m1368 -440 c20
-195 37 -210 264 -229 l144 -13 -179 -179 -179 -179 -194 16 c-107 9 -196 17
-197 18 0 1 -9 89 -18 196 l-17 194 179 179 c166 166 178 177 181 151 2 -16 9
-85 16 -154z m-1302 -429 c116 -24 247 -69 343 -117 80 -40 199 -115 233 -146
l23 -21 -213 -213 -212 -212 -62 35 c-176 98 -401 128 -595 79 -221 -56 -423
-222 -524 -430 -56 -116 -74 -185 -81 -315 -18 -323 159 -623 453 -766 337
-165 743 -75 983 218 60 74 131 216 154 308 50 197 20 418 -78 594 l-35 62
212 212 213 213 21 -23 c31 -34 106 -153 146 -233 48 -96 93 -227 119 -348 31
-145 31 -407 0 -554 -122 -566 -538 -983 -1105 -1105 -146 -31 -408 -31 -554
0 -566 122 -983 539 -1105 1105 -31 146 -31 408 0 554 130 605 597 1037 1212
1123 103 14 341 4 452 -20z m-127 -894 c92 -29 97 -18 -97 -213 -97 -98 -183
-192 -192 -210 -61 -122 75 -258 197 -197 18 9 112 95 210 192 195 194 184
189 213 97 114 -369 -212 -731 -588 -654 -229 47 -408 266 -408 499 0 227 167
439 392 496 66 17 204 12 273 -10z"/>
</g>
</svg>
