<?xml version="1.0" standalone="no"?>
<!DOCTYPE svg PUBLIC "-//W3C//DTD SVG 20010904//EN"
 "http://www.w3.org/TR/2001/REC-SVG-20010904/DTD/svg10.dtd">
<svg version="1.0" xmlns="http://www.w3.org/2000/svg"
 width="512.000000pt" height="512.000000pt" viewBox="0 0 512.000000 512.000000"
 preserveAspectRatio="xMidYMid meet">

<g transform="translate(0.000000,512.000000) scale(0.100000,-0.100000)"
fill="#000000" stroke="none">
<path d="M2420 5113 c-138 -14 -320 -68 -450 -133 -80 -40 -223 -138 -252
-172 -24 -27 -23 -73 2 -98 34 -34 74 -26 155 34 152 110 330 184 515 212 122
18 207 18 338 -2 253 -37 449 -134 622 -306 41 -41 89 -82 106 -91 47 -24 119
-110 152 -180 51 -110 62 -195 62 -503 l0 -276 -22 6 c-13 4 -42 10 -64 13
l-42 5 -4 137 c-3 84 -10 146 -18 163 -13 28 -81 68 -116 68 -58 0 -148 67
-218 163 -34 46 -73 67 -126 67 -49 0 -63 -7 -155 -76 -242 -180 -532 -256
-858 -225 -74 7 -155 10 -179 6 -137 -23 -254 -126 -293 -258 -11 -38 -16 -43
-51 -48 -21 -3 -54 -9 -71 -13 l-33 -8 0 144 c0 289 42 473 151 660 22 38 39
80 39 97 0 64 -77 95 -123 49 -35 -36 -122 -213 -156 -320 -45 -141 -61 -290
-61 -554 0 -154 -4 -232 -12 -247 -6 -12 -12 -49 -12 -82 0 -145 111 -264 264
-282 53 -6 54 -8 65 -78 10 -64 54 -193 87 -259 76 -152 197 -289 338 -383
l70 -46 0 -63 0 -63 -92 -64 c-89 -62 -107 -69 -418 -177 -179 -62 -347 -124
-375 -139 -75 -40 -157 -127 -199 -212 -33 -67 -48 -132 -152 -649 -104 -520
-115 -583 -111 -660 5 -128 47 -194 152 -242 l50 -23 1093 -3 1092 -2 25 24
c32 32 32 70 0 101 l-24 25 -781 0 -780 0 0 354 c0 342 -1 354 -21 380 -27 34
-71 35 -104 1 l-25 -24 0 -356 0 -355 -212 1 c-145 0 -224 5 -248 13 -47 17
-72 62 -71 129 0 46 206 1094 229 1173 24 77 82 150 149 186 49 27 371 144
377 137 1 -2 44 -81 95 -175 91 -168 112 -194 157 -194 24 0 64 47 64 75 0 14
-38 96 -85 181 -47 86 -85 160 -85 163 0 4 24 15 52 24 42 13 55 14 64 4 6 -6
143 -256 304 -555 172 -319 303 -551 317 -562 37 -29 79 -26 112 7 14 16 159
272 320 571 161 298 297 544 301 547 6 4 98 -22 109 -31 7 -6 -605 -1130 -634
-1163 -80 -91 -224 -93 -307 -5 -15 16 -89 145 -166 287 -77 142 -148 267
-157 278 -39 42 -125 8 -125 -51 0 -39 298 -576 347 -626 86 -85 222 -123 342
-94 67 16 158 77 197 132 17 24 170 299 339 613 169 314 309 572 311 574 6 7
328 -110 377 -137 50 -27 102 -82 131 -139 18 -37 71 -284 176 -828 81 -417
84 -462 35 -501 -39 -31 -62 -34 -291 -34 l-204 0 0 355 0 356 -25 24 c-33 34
-77 33 -104 -1 -20 -26 -21 -38 -21 -380 l0 -354 -80 0 c-73 0 -83 -3 -105
-25 -32 -31 -32 -69 0 -101 l25 -25 393 3 c385 3 393 3 442 26 105 48 147 114
152 242 4 77 -7 139 -111 655 -63 314 -124 595 -135 625 -26 68 -96 159 -159
205 -62 45 -111 65 -462 186 -280 96 -300 105 -387 166 l-93 64 0 73 0 73 58
38 c127 85 248 224 322 373 37 73 81 211 95 295 5 34 8 37 40 37 52 0 138 36
187 79 76 68 113 176 87 256 -9 28 -15 157 -19 440 -8 452 -10 468 -85 621
-46 93 -122 181 -197 229 -18 12 -67 55 -109 96 -248 242 -638 371 -1009 332z
m686 -1102 c48 -68 141 -134 221 -157 l54 -16 -3 -134 -3 -135 -37 -21 -38
-22 -27 26 c-53 49 -68 52 -257 56 -98 2 -202 1 -231 -3 -61 -7 -135 -51 -153
-90 -11 -23 -16 -25 -84 -25 -72 0 -73 1 -95 35 -13 19 -42 45 -65 57 -40 21
-58 23 -237 26 -218 4 -266 -3 -324 -50 l-39 -30 -35 18 c-19 11 -38 25 -40
32 -11 27 19 95 61 136 62 62 104 71 258 56 345 -35 694 54 943 240 44 32 82
59 85 59 3 0 24 -26 46 -58z m-1546 -672 l0 -132 -40 6 c-85 11 -144 90 -120
161 17 52 77 96 133 96 l27 0 0 -131z m2077 106 c31 -21 63 -73 63 -105 0 -32
-32 -84 -63 -105 -14 -9 -41 -19 -61 -22 l-36 -6 0 133 0 133 36 -6 c20 -3 47
-13 61 -22z m-1313 -1 c22 -21 23 -192 2 -233 -28 -54 -52 -61 -201 -61 -195
0 -215 17 -215 189 0 85 3 102 18 110 10 6 94 11 199 11 152 0 184 -3 197 -16z
m837 6 c17 -10 19 -22 19 -121 l0 -111 -34 -34 -34 -34 -136 0 c-100 0 -145 4
-165 15 -44 22 -61 70 -61 171 0 128 -7 124 212 124 105 0 187 -4 199 -10z
m-1401 -164 c1 -128 50 -212 155 -262 46 -22 62 -24 210 -24 139 0 166 3 205
21 100 45 160 142 160 259 l0 60 54 0 53 0 5 -73 c8 -121 63 -204 165 -249 39
-17 64 -19 211 -16 186 3 211 10 275 75 55 55 71 96 75 198 3 68 7 93 20 103
9 6 19 12 24 12 4 0 8 -75 8 -167 0 -133 -4 -185 -20 -250 -53 -221 -196 -415
-390 -529 -197 -116 -462 -146 -675 -77 -268 87 -472 293 -550 558 -24 80 -28
111 -32 284 l-6 193 27 -17 c25 -16 26 -22 26 -99z m1140 -1087 c0 -38 -9 -50
-166 -225 -91 -101 -170 -184 -174 -184 -4 0 -83 83 -174 184 -149 166 -166
188 -166 220 0 20 1 36 3 36 1 0 36 -9 77 -21 153 -41 412 -34 545 15 56 20
55 21 55 -25z m-611 -341 c83 -92 151 -171 151 -176 0 -8 -140 -116 -186 -144
-8 -6 -47 56 -123 197 -61 113 -111 209 -111 213 1 9 103 82 112 79 3 -1 74
-77 157 -169z m756 135 c30 -21 54 -41 55 -46 0 -4 -50 -99 -111 -212 -77
-141 -115 -203 -123 -197 -72 43 -186 137 -182 149 5 13 297 343 304 343 2 0
28 -17 57 -37z m-443 -449 c42 -30 43 -32 26 -69 -10 -22 -17 -25 -68 -25 -51
0 -58 3 -68 25 -7 14 -12 30 -12 34 0 7 70 61 79 61 3 0 22 -12 43 -26z m-233
-151 c7 -18 8 -39 3 -58 l-9 -30 -22 43 c-17 34 -20 47 -10 58 17 20 25 17 38
-13z m420 13 c9 -11 8 -22 -6 -50 -9 -20 -20 -36 -24 -36 -14 0 -19 49 -7 74
13 30 21 32 37 12z m-156 -198 l26 -81 -47 -89 c-26 -48 -49 -88 -52 -88 -3 0
-26 40 -52 88 l-47 89 26 81 27 82 46 0 46 0 27 -82z"/>
</g>
</svg>
