<?xml version="1.0" standalone="no"?>
<!DOCTYPE svg PUBLIC "-//W3C//DTD SVG 20010904//EN"
 "http://www.w3.org/TR/2001/REC-SVG-20010904/DTD/svg10.dtd">
<svg version="1.0" xmlns="http://www.w3.org/2000/svg"
 width="512.000000pt" height="512.000000pt" viewBox="0 0 512.000000 512.000000"
 preserveAspectRatio="xMidYMid meet">

<g transform="translate(0.000000,512.000000) scale(0.100000,-0.100000)"
fill="#000000" stroke="none">
<path d="M176 5100 c-67 -26 -131 -91 -156 -158 -19 -51 -20 -79 -20 -988 l0
-935 25 -24 24 -25 376 0 376 0 24 25 c25 24 25 26 25 202 0 99 5 196 11 218
15 53 91 129 144 144 90 25 160 7 224 -57 64 -64 71 -95 71 -306 0 -174 0
-177 25 -201 l24 -25 376 0 376 0 24 25 25 24 0 324 0 325 158 4 c151 3 159 4
222 34 82 39 144 101 184 184 28 58 31 75 31 155 0 82 -3 97 -33 157 -41 83
-119 158 -200 189 -48 19 -81 24 -210 27 l-152 4 0 324 0 325 -25 24 -24 25
-938 0 c-902 -1 -940 -2 -987 -20z"/>
<path d="M3120 3801 l0 -349 158 -4 c151 -3 159 -4 222 -34 83 -39 145 -101
184 -184 27 -58 31 -75 31 -155 0 -80 -3 -97 -32 -157 -39 -82 -99 -142 -183
-182 -63 -30 -70 -31 -222 -34 l-158 -4 0 -274 0 -274 325 0 326 0 24 -25 c25
-24 25 -26 25 -202 0 -98 5 -196 11 -218 7 -26 28 -56 58 -85 95 -93 218 -93
311 0 63 62 70 94 70 304 0 174 0 177 25 201 l24 25 401 0 400 0 0 885 c0 857
-1 886 -20 937 -26 68 -90 133 -158 158 -51 19 -79 20 -937 20 l-885 0 0 -349z"/>
<path d="M1965 2585 c-51 -18 -120 -91 -134 -141 -6 -21 -11 -119 -11 -217 0
-176 0 -178 -25 -202 l-24 -25 -401 0 -400 0 0 -885 c0 -857 1 -886 20 -937
26 -68 90 -133 158 -158 51 -19 79 -20 937 -20 l885 0 0 349 0 349 -157 4
c-147 3 -162 6 -219 32 -77 35 -154 112 -191 191 -24 52 -28 72 -28 150 0 77
4 99 28 151 36 77 113 154 192 191 56 26 71 28 218 31 l157 4 0 274 0 274
-325 0 -326 0 -24 25 c-25 24 -25 27 -25 201 0 211 -7 242 -71 306 -66 66
-146 84 -234 53z"/>
<path d="M3120 1675 l0 -326 -25 -24 c-24 -25 -26 -25 -202 -25 -99 0 -196 -5
-218 -11 -53 -15 -129 -91 -144 -144 -25 -91 -7 -163 58 -225 64 -63 96 -70
305 -70 174 0 177 0 201 -25 l25 -24 0 -401 0 -400 885 0 c858 0 886 1 937 20
68 25 132 90 158 158 19 51 20 80 20 937 l0 885 -349 0 -349 0 -4 -157 c-3
-147 -5 -162 -31 -218 -37 -79 -114 -156 -191 -192 -52 -24 -74 -28 -151 -28
-77 0 -99 4 -151 28 -77 36 -154 113 -191 192 -26 56 -28 71 -31 218 l-4 157
-274 0 -274 0 0 -325z"/>
</g>
</svg>
