<?xml version="1.0" standalone="no"?>
<!DOCTYPE svg PUBLIC "-//W3C//DTD SVG 20010904//EN"
 "http://www.w3.org/TR/2001/REC-SVG-20010904/DTD/svg10.dtd">
<svg version="1.0" xmlns="http://www.w3.org/2000/svg"
 width="512.000000pt" height="512.000000pt" viewBox="0 0 512.000000 512.000000"
 preserveAspectRatio="xMidYMid meet">

<g transform="translate(0.000000,512.000000) scale(0.100000,-0.100000)"
fill="#000000" stroke="none">
<path d="M2441 5024 c-253 -68 -410 -331 -346 -577 19 -75 57 -148 101 -197
l35 -39 -52 -27 c-155 -78 -259 -254 -259 -438 l0 -69 -53 -56 c-29 -31 -61
-67 -70 -81 l-17 -24 -17 24 c-40 59 -118 130 -173 159 l-59 32 42 52 c218
267 80 674 -258 762 -294 76 -595 -159 -595 -465 0 -107 47 -234 116 -310 l35
-39 -53 -27 c-73 -37 -168 -135 -204 -211 -23 -50 -35 -63 -58 -68 -43 -10
-129 -101 -144 -151 -18 -63 -16 -494 3 -592 23 -115 90 -244 173 -333 38 -41
73 -85 77 -99 18 -58 59 -123 114 -182 l59 -64 -11 -47 c-8 -35 -16 -49 -31
-52 -12 -3 -76 -16 -143 -30 -66 -13 -148 -35 -181 -49 -140 -56 -255 -164
-323 -301 -68 -138 -69 -146 -69 -832 l0 -613 2480 0 2480 0 0 613 c0 686 -1
694 -69 832 -67 136 -185 247 -323 302 -31 13 -112 35 -180 48 -68 14 -132 27
-144 30 -15 3 -23 17 -31 52 l-11 47 59 64 c55 59 96 124 114 182 4 14 39 58
77 99 115 124 188 305 188 468 -1 124 -49 270 -125 373 -29 39 -35 56 -35 97
0 163 -111 343 -259 417 l-52 27 35 39 c19 22 49 66 65 99 26 50 35 60 63 65
108 20 218 111 271 224 29 61 32 76 32 163 0 90 -2 99 -37 171 -45 91 -103
147 -196 191 -61 29 -76 32 -163 32 -90 0 -99 -2 -171 -37 -44 -23 -91 -55
-114 -80 -39 -42 -41 -43 -96 -40 -260 16 -498 -213 -498 -478 0 -107 47 -234
116 -310 l35 -38 -60 -32 c-56 -30 -133 -101 -174 -159 l-16 -25 -23 30 c-12
16 -44 52 -70 80 -48 51 -48 51 -48 120 0 184 -104 360 -258 438 l-52 26 43
53 c54 67 87 143 100 235 48 329 -271 612 -592 526z m250 -176 c49 -23 139
-100 139 -120 0 -4 -121 -8 -270 -8 -148 0 -270 4 -270 8 0 14 83 93 115 110
93 48 195 52 286 10z m184 -335 c-8 -53 -41 -125 -79 -170 -14 -16 -53 -45
-88 -64 -58 -31 -70 -34 -148 -34 -78 0 -90 3 -148 34 -35 19 -74 48 -88 64
-38 45 -71 117 -79 170 l-7 47 322 0 322 0 -7 -47z m1519 35 c55 -16 138 -99
154 -154 25 -84 9 -160 -46 -224 -30 -36 -89 -77 -97 -68 -2 2 -8 30 -14 63
-22 118 -95 234 -194 306 l-38 27 28 20 c60 41 132 52 207 30z m-3063 -180
c49 -23 139 -100 139 -120 0 -4 -121 -8 -270 -8 -148 0 -270 4 -270 8 0 14 83
93 115 110 93 48 195 52 286 10z m2720 0 c49 -23 139 -100 139 -120 0 -4 -121
-8 -270 -8 -148 0 -270 4 -270 8 0 14 83 93 115 110 93 48 195 52 286 10z
m-2536 -335 c-8 -53 -41 -125 -79 -170 -14 -16 -53 -45 -88 -64 -58 -31 -70
-34 -148 -34 -78 0 -90 3 -148 34 -35 19 -74 48 -88 64 -38 45 -71 117 -79
170 l-7 47 322 0 322 0 -7 -47z m1201 15 c-7 -39 -31 -74 -70 -102 -39 -29
-133 -29 -172 0 -39 28 -63 63 -70 102 l-6 32 162 0 163 0 -7 -32z m1519 -15
c-8 -53 -41 -125 -79 -170 -14 -16 -53 -45 -88 -64 -58 -31 -70 -34 -148 -34
-78 0 -90 3 -148 34 -35 19 -74 48 -88 64 -38 45 -71 117 -79 170 l-7 47 322
0 322 0 -7 -47z m-1985 -20 c0 -10 11 -42 25 -71 29 -63 29 -62 13 -62 -7 0
-49 -16 -93 -36 -44 -19 -86 -38 -92 -41 -20 -8 -15 35 8 87 21 48 105 140
126 140 7 0 13 -8 13 -17z m692 -30 c26 -27 56 -68 67 -93 23 -52 28 -95 9
-87 -7 3 -49 22 -93 41 -44 20 -86 36 -92 36 -17 0 -17 -1 12 62 14 29 25 61
25 71 0 29 24 19 72 -30z m-192 -246 c152 -42 271 -109 374 -213 71 -71 147
-184 176 -262 56 -148 54 -126 58 -728 l3 -561 -55 18 c-30 11 -112 28 -181
39 -69 12 -136 25 -149 29 -26 10 -86 76 -86 94 1 7 26 30 57 52 114 82 207
226 238 370 10 50 15 136 15 301 l0 230 -92 18 c-196 37 -323 99 -418 202
l-50 56 0 109 0 109 -80 0 -80 0 0 -109 0 -109 -46 -51 c-95 -105 -226 -170
-421 -207 l-93 -18 0 -225 c0 -258 10 -323 64 -434 46 -95 110 -174 184 -228
34 -24 61 -52 61 -61 1 -22 -56 -87 -85 -99 -13 -4 -80 -17 -149 -29 -69 -11
-150 -28 -180 -38 l-55 -19 0 528 c0 413 3 543 14 601 64 331 303 573 636 644
80 17 262 12 340 -9z m-1394 -169 c-7 -39 -31 -74 -70 -102 -39 -29 -133 -29
-172 0 -39 28 -63 63 -70 102 l-6 32 162 0 163 0 -7 -32z m2720 0 c-7 -39 -31
-74 -70 -102 -39 -29 -133 -29 -172 0 -39 28 -63 63 -70 102 l-6 32 162 0 163
0 -7 -32z m-3178 -60 c7 -24 15 -49 18 -55 4 -10 -13 -13 -70 -13 -42 0 -76 4
-76 9 0 14 90 101 104 101 6 0 17 -19 24 -42z m682 1 c62 -61 112 -184 84
-212 -3 -3 -27 11 -52 30 -26 20 -70 47 -99 60 l-52 24 25 52 c13 29 24 60 24
70 0 28 25 20 70 -24z m2030 22 c0 -10 13 -45 30 -77 16 -32 28 -59 27 -60 -1
-1 -22 -12 -47 -24 -25 -12 -69 -40 -98 -62 l-52 -39 -10 26 c-15 40 -12 65
14 122 25 53 98 133 122 133 8 0 14 -8 14 -19z m692 -28 c43 -45 78 -99 78
-121 0 -5 -26 1 -57 13 -32 13 -74 26 -95 30 l-36 7 19 41 c10 23 19 50 19 60
0 29 24 19 72 -30z m-2860 -260 c40 -19 89 -53 119 -83 50 -50 51 -53 45 -97
-3 -25 -6 -139 -7 -252 -1 -148 -4 -195 -10 -167 -24 103 -120 223 -210 263
-28 12 -38 22 -34 32 3 8 9 34 12 58 l6 43 -82 0 c-71 0 -81 -2 -81 -18 0 -10
-12 -42 -26 -70 -38 -76 -78 -96 -242 -121 -73 -11 -145 -27 -160 -35 -73 -38
-132 -134 -132 -214 0 -34 -1 -35 -14 -17 -7 11 -24 47 -37 80 -22 56 -23 76
-27 322 l-4 262 26 26 26 26 383 -3 382 -3 67 -32z m2767 22 c84 -20 153 -61
217 -127 99 -102 141 -218 130 -359 -5 -73 -34 -173 -62 -214 -13 -18 -14 -17
-14 17 0 80 -59 176 -132 214 -15 8 -87 23 -159 35 -72 11 -145 27 -162 35
-47 25 -85 73 -98 126 l-13 48 -79 0 -80 0 6 -43 c3 -24 9 -49 12 -57 3 -10
-12 -24 -50 -44 -90 -47 -170 -151 -194 -253 -6 -26 -9 29 -10 179 -1 119 -4
223 -7 232 -4 11 16 38 62 84 69 69 143 113 221 131 66 15 341 12 412 -4z
m-1576 -106 c89 -75 221 -142 327 -166 l80 -18 0 -157 c0 -86 -5 -181 -11
-210 -45 -211 -243 -368 -462 -368 -130 1 -250 51 -343 144 -114 114 -144 205
-144 436 l0 155 80 18 c106 24 239 92 325 166 39 33 71 60 73 60 2 1 36 -26
75 -60z m-1327 -395 c49 -23 109 -96 124 -149 8 -29 11 -88 8 -172 -4 -123 -5
-131 -38 -191 -37 -70 -68 -100 -144 -140 -43 -22 -64 -26 -136 -26 -72 0 -93
4 -136 26 -76 40 -107 70 -144 140 -33 61 -34 68 -38 195 -2 73 -1 144 2 158
10 39 42 52 166 70 126 19 200 42 245 80 36 29 46 30 91 9z m2599 -10 c51 -39
118 -60 245 -79 124 -18 156 -31 166 -70 3 -14 4 -85 2 -158 -4 -127 -5 -134
-38 -195 -37 -70 -68 -100 -144 -140 -43 -22 -64 -26 -136 -26 -72 0 -93 4
-136 26 -76 40 -107 70 -144 140 -33 60 -34 68 -38 191 -5 153 6 200 59 261
36 41 89 75 117 76 7 0 29 -12 47 -26z m-2313 -866 c-8 -8 -103 3 -153 18 -9
2 -20 24 -26 51 l-11 47 60 65 c53 57 76 95 124 206 6 12 10 -56 12 -179 1
-110 -2 -204 -6 -208z m1948 379 c0 -33 64 -141 118 -198 l60 -65 -11 -47 c-6
-27 -17 -49 -26 -51 -50 -14 -134 -27 -147 -22 -11 4 -14 41 -14 206 0 132 3
199 10 195 6 -3 10 -12 10 -18z m-970 -182 c47 0 103 3 126 7 39 7 41 6 57
-26 34 -72 147 -166 200 -166 23 0 27 9 -63 -159 l-75 -141 -255 0 -255 0 -75
141 c-41 77 -76 144 -78 147 -1 4 20 15 46 24 63 23 134 86 162 144 l23 46 51
-9 c28 -4 89 -8 136 -8z m-1450 -165 c30 0 72 4 93 9 40 10 41 9 50 -29 5 -22
-2 -30 -68 -74 l-75 -48 -75 48 c-66 44 -73 52 -68 74 9 38 10 39 50 29 21 -5
63 -9 93 -9z m2880 0 c30 0 72 4 93 9 40 10 41 9 50 -29 5 -22 -2 -30 -68 -74
l-75 -48 -75 48 c-66 44 -73 52 -68 74 9 38 10 39 50 29 21 -5 63 -9 93 -9z
m-1766 -523 l246 -457 0 -350 0 -350 -240 0 -240 0 0 87 c0 83 -3 94 -60 238
-87 221 -95 256 -94 415 1 118 5 147 29 225 44 142 46 129 -26 154 -35 11 -69
21 -76 21 -31 0 -93 -275 -93 -416 l0 -84 -161 0 -161 0 5 203 c5 225 14 271
75 394 91 184 260 320 464 372 40 11 76 16 79 13 4 -4 117 -213 253 -465z
m1066 428 c117 -41 271 -163 335 -265 99 -157 116 -224 122 -477 l5 -203 -161
0 -161 0 0 84 c0 141 -62 416 -93 416 -7 0 -41 -10 -76 -21 -72 -25 -70 -12
-26 -154 25 -79 28 -107 29 -225 1 -159 -8 -196 -94 -415 -57 -144 -60 -155
-60 -238 l0 -87 -240 0 -240 0 0 350 0 350 238 442 c132 244 244 453 250 465
11 21 14 21 69 8 32 -8 78 -21 103 -30z m-2390 -101 c22 -15 40 -30 40 -33 0
-4 -38 -25 -84 -48 l-85 -42 -30 54 c-17 30 -31 59 -31 63 0 9 77 28 123 31
15 0 45 -11 67 -25z m510 19 c0 -5 -15 -26 -34 -47 -32 -39 -34 -39 -64 -27
-18 8 -32 17 -32 21 0 15 76 59 103 59 15 1 27 -2 27 -6z m2370 -19 c22 -15
40 -30 40 -34 0 -4 -14 -13 -32 -21 -30 -12 -32 -12 -64 27 -19 21 -34 42 -34
47 0 16 53 5 90 -19z m553 15 c31 -7 57 -16 57 -21 0 -4 -14 -33 -31 -63 l-30
-54 -85 42 c-46 23 -84 44 -84 48 0 12 75 58 96 58 11 1 46 -4 77 -10z m-3545
-509 l242 -450 0 -270 0 -270 -240 0 -240 0 0 440 0 440 -80 0 -80 0 0 -440 0
-440 -80 0 -80 0 0 525 c0 350 4 542 11 577 17 77 63 163 122 226 51 54 138
112 167 112 10 0 103 -164 258 -450z m3847 421 c64 -37 146 -123 179 -189 55
-108 56 -122 56 -694 l0 -528 -80 0 -80 0 0 440 0 440 -80 0 -80 0 0 -440 0
-440 -240 0 -240 0 0 270 0 270 243 450 c154 286 247 450 257 450 8 0 38 -13
65 -29z m-3452 -97 c39 -20 74 -38 75 -40 2 -1 -1 -19 -8 -39 l-12 -36 -75 3
-76 3 -12 35 c-28 80 -28 78 2 94 15 8 29 15 31 16 1 0 35 -16 75 -36z m2838
20 c32 -16 32 -13 4 -94 l-12 -35 -76 -3 -75 -3 -12 36 c-7 20 -10 38 -8 39 4
4 141 75 146 76 2 0 16 -7 33 -16z m-3097 -149 c16 -51 15 -95 -2 -95 -4 0
-22 28 -40 62 -32 58 -33 63 -16 75 30 22 40 15 58 -42z m3310 42 c17 -12 16
-17 -16 -75 -18 -34 -36 -62 -40 -62 -17 0 -18 44 -2 95 18 57 28 64 58 42z
m-1524 -34 c0 -11 -154 -293 -160 -293 -6 0 -160 282 -160 293 0 4 72 7 160 7
88 0 160 -3 160 -7z m-1517 -235 c-5 -70 -11 -93 -41 -150 -20 -38 -39 -68
-42 -68 -4 0 -27 38 -51 84 l-44 85 32 65 33 66 59 0 59 0 -5 -82z m2860 16
l32 -65 -44 -85 c-24 -46 -47 -84 -51 -84 -3 0 -22 30 -42 68 -30 57 -36 80
-41 150 l-5 82 59 0 59 0 33 -66z m-2739 -490 l36 -6 0 -239 0 -239 -80 0 -80
0 0 269 c0 148 3 276 6 284 4 12 14 7 44 -23 24 -24 52 -41 74 -46z m2596
-211 l0 -273 -80 0 -80 0 0 239 0 239 36 6 c22 5 49 21 72 45 23 23 40 33 44
27 4 -6 8 -134 8 -283z m-2200 191 c0 -9 27 -85 60 -168 54 -136 60 -159 60
-224 l0 -72 -160 0 -160 0 0 240 0 240 100 0 c86 0 100 -2 100 -16z m1880
-224 l0 -240 -160 0 -160 0 0 72 c0 65 6 88 60 224 33 83 60 159 60 168 0 14
14 16 100 16 l100 0 0 -240z"/>
<path d="M2315 2638 c-33 -17 -62 -32 -64 -34 -2 -2 9 -22 24 -46 134 -202
425 -210 559 -15 20 29 36 55 36 58 0 3 -32 21 -72 40 -48 23 -72 30 -75 22
-18 -51 -99 -102 -163 -103 -49 0 -121 38 -145 77 -11 18 -24 32 -30 32 -5 0
-37 -14 -70 -31z"/>
</g>
</svg>
